<?xml version="1.0" encoding="UTF-8" standalone="no"?>
<!-- Created with Inkscape (http://www.inkscape.org/) -->

<svg
   xmlns:dc="http://purl.org/dc/elements/1.1/"
   xmlns:cc="http://creativecommons.org/ns#"
   xmlns:rdf="http://www.w3.org/1999/02/22-rdf-syntax-ns#"
   xmlns:svg="http://www.w3.org/2000/svg"
   xmlns="http://www.w3.org/2000/svg"
   xmlns:sodipodi="http://sodipodi.sourceforge.net/DTD/sodipodi-0.dtd"
   xmlns:inkscape="http://www.inkscape.org/namespaces/inkscape"
   width="103.2127mm"
   height="47.474606mm"
   viewBox="0 0 365.71408 168.21711"
   id="svg2"
   version="1.1"
   inkscape:version="0.91 r13725"
   sodipodi:docname="Logo CV.svg">
  <defs
     id="defs4" />
  <sodipodi:namedview
     id="base"
     pagecolor="#ffffff"
     bordercolor="#666666"
     borderopacity="1.0"
     inkscape:pageopacity="0.0"
     inkscape:pageshadow="2"
     inkscape:zoom="0.35"
     inkscape:cx="-356.42869"
     inkscape:cy="-348.57144"
     inkscape:document-units="px"
     inkscape:current-layer="layer1"
     showgrid="false"
     inkscape:window-width="1366"
     inkscape:window-height="745"
     inkscape:window-x="-8"
     inkscape:window-y="-8"
     inkscape:window-maximized="1"
     fit-margin-top="-0.1"
     fit-margin-left="0"
     fit-margin-right="0"
     fit-margin-bottom="0" />
  <metadata
     id="metadata7">
    <rdf:RDF>
      <cc:Work
         rdf:about="">
        <dc:format>image/svg+xml</dc:format>
        <dc:type
           rdf:resource="http://purl.org/dc/dcmitype/StillImage" />
        <dc:title></dc:title>
      </cc:Work>
    </rdf:RDF>
  </metadata>
  <g
     inkscape:label="Capa 1"
     inkscape:groupmode="layer"
     id="layer1"
     transform="translate(-37.142979,-15.57368)">
    <circle
       id="path3344"
       cx="391.42856"
       cy="60.933632"
       r="11.428572"
       style="fill:#aa0000" />
    <ellipse
       id="path3346"
       cx="385.71429"
       cy="116.64792"
       rx="17.142857"
       ry="15.714286"
       style="fill:#ffff00" />
    <ellipse
       id="path3348"
       cx="54.285713"
       cy="115.21935"
       rx="17.142857"
       ry="14.285714"
       style="fill:#554400" />
    <ellipse
       id="path3350"
       cx="185.71428"
       cy="35.219349"
       rx="22.857143"
       ry="20"
       style="fill:#00ff00" />
    <ellipse
       id="path3352"
       cx="265.71429"
       cy="128.07649"
       rx="22.857143"
       ry="21.428572"
       style="fill:#0000ff" />
    <ellipse
       id="path3354"
       cx="164.28572"
       cy="160.93364"
       rx="24.285715"
       ry="22.857143" />
    <path
       d="m 148.2987,174.49208 c -3.85714,-3.85715 -7.01299,-10.04328 -7.01299,-13.74697 0,-8.16881 9.12919,-18.55407 18.34278,-20.86654 7.84718,-1.96951 23.00064,4.98925 25.59671,11.7545 8.76214,22.83379 -19.47301,40.3125 -36.9265,22.85901 z"
       id="path3356"
       inkscape:connector-curvature="0" />
    <path
       d="m 148.2987,174.49208 c -11.58507,-11.58508 -8.33705,-26.52124 7.16354,-32.94179 22.42292,-9.28788 42.21221,17.502 24.92504,33.74245 -9.06733,8.51831 -23.12025,8.16767 -32.08858,-0.80066 z"
       id="path3358"
       inkscape:connector-curvature="0" />
    <path
       d="m 147.20737,173.97689 c -10.11482,-12.8589 -6.71162,-26.22728 8.25487,-32.4266 22.42292,-9.28788 42.21221,17.502 24.92504,33.74245 -9.64471,9.06073 -25.51269,8.43144 -33.17991,-1.31585 z"
       id="path3360"
       inkscape:connector-curvature="0" />
    <path
       d="m 147.20737,173.97689 c -9.72954,-12.36911 -7.40874,-24.36431 6.06169,-31.33014 16.01776,-8.28311 33.73094,1.69229 33.73094,18.996 0,18.45303 -28.12276,27.16998 -39.79263,12.33414 z"
       id="path3362"
       inkscape:connector-curvature="0"
       style="fill:#6c5d53" />
    <flowRoot
       xml:space="preserve"
       id="flowRoot3355"
       style="font-style:normal;font-variant:normal;font-weight:bold;font-stretch:normal;font-size:40.00019836px;line-height:125%;font-family:sans-serif;-inkscape-font-specification:'sans-serif, Bold';text-align:start;letter-spacing:0px;word-spacing:0px;writing-mode:lr-tb;text-anchor:start;fill:#000000;fill-opacity:1;stroke:none;stroke-width:1px;stroke-linecap:butt;stroke-linejoin:miter;stroke-opacity:1"
       transform="matrix(1.390887,0,0,1.6636423,49.705562,-50.87432)"><flowRegion
         id="flowRegion3357"><rect
           id="rect3359"
           width="280"
           height="65.714287"
           x="37.142857"
           y="53.931393"
           style="font-style:normal;font-variant:normal;font-weight:bold;font-stretch:normal;font-size:40.00019836px;line-height:125%;font-family:sans-serif;-inkscape-font-specification:'sans-serif, Bold';text-align:start;writing-mode:lr-tb;text-anchor:start" /></flowRegion><flowPara
         id="flowPara3363">M.A.R.C.</flowPara></flowRoot>  </g>
</svg>
